<mxfile host="app.diagrams.net" modified="2023-12-11T04:00:18.220Z" agent="Mozilla/5.0 (Windows NT 10.0; Win64; x64) AppleWebKit/537.36 (KHTML, like Gecko) Chrome/120.0.0.0 Safari/537.36" version="22.1.7" etag="qvatzH_mHRpq1X8fpi-i" type="github">
  <diagram name="Trang-1" id="GZqTl0wYIQCgq2J38TEr">
    <mxGraphModel>
      <root>
        <mxCell id="0" />
        <mxCell id="1" parent="0" />
      </root>
    </mxGraphModel>
  </diagram>
</mxfile>
